<svg width="281" height="47" viewBox="0 0 281 47" fill="none" xmlns="http://www.w3.org/2000/svg">
<path fill-rule="evenodd" clip-rule="evenodd" d="M82.7842 2.29286C87.9622 5.00475 90.8627 9.70837 91.4858 16.4028C92.0718 22.6964 90.4229 27.712 86.4666 31.6683C82.113 36.0227 78.6338 36.9569 66.7832 36.9569H57.5437V0L68.4239 0.23491C78.7336 0.457119 79.4855 0.564147 82.7842 2.29286ZM218.226 6.15934H200.819V14.1943H216.888V20.2194H200.819V30.9318H218.226V36.9569H192.116V0.134236H218.226V6.15934ZM36.8898 11.6829C43.451 15.4505 48.8403 18.6966 48.8403 18.8807C48.8403 19.3043 25.1398 32.9399 24.4034 32.9399C23.6669 32.9399 -0.000907719 19.3043 2.61108e-08 18.8807C0.00181143 18.4336 23.5327 4.85056 24.3362 4.83333C24.6673 4.82698 30.3287 7.91527 36.8898 11.6829ZM116.862 9.52607C120.55 11.3137 122.487 15.0641 122.487 20.4199V24.2365H102.334L102.759 25.7094C104.485 31.7037 111.574 33.7099 118.604 30.1954C122.302 28.346 122.6 28.5211 122.363 32.4048C122.156 35.8187 122.1 35.9021 119.474 36.7012C115.925 37.7814 106.971 37.854 103.54 36.8309C99.558 35.6436 96.0679 31.8688 95.0512 27.6513C93.2445 20.1523 96.1369 12.4293 101.798 9.63128C105.815 7.64589 112.881 7.59691 116.862 9.52607ZM147.66 9.52607C151.348 11.3137 153.284 15.0641 153.284 20.4199V24.2365H133.132L133.556 25.7094C135.282 31.7037 142.371 33.7099 149.401 30.1954C153.099 28.346 153.398 28.5211 153.161 32.4048C152.953 35.8187 152.898 35.9021 150.271 36.7012C146.723 37.7814 137.767 37.854 134.337 36.8309C130.356 35.6436 126.865 31.8688 125.849 27.6513C124.042 20.1523 126.934 12.4293 132.596 9.63128C136.613 7.64589 143.678 7.59691 147.66 9.52607ZM182.34 10.2108C185.471 12.9391 187.041 18.0771 186.607 24.1694C186.435 26.5801 185.817 29.5015 185.248 30.5972C183.927 33.1413 180.818 36.264 178.859 37.0168C176.382 37.9682 170.818 37.7252 168.616 36.5697L166.674 35.5511V47H158.64V8.83767H162.657C166.205 8.83767 166.674 8.99004 166.674 10.1437C166.674 11.3718 166.842 11.3527 169.519 9.80905C171.616 8.60004 173.369 8.16831 176.181 8.16831C179.529 8.16831 180.285 8.41955 182.34 10.2108ZM273.997 9.07711C278.247 10.892 280.491 14.997 280.491 20.9559V24.2365H260.271L260.714 26.0441C262.099 31.7064 269.645 33.6628 276.608 30.1672C277.947 29.4943 279.254 28.9229 279.453 28.9229C279.659 28.9229 279.821 30.3958 279.821 32.2706C279.821 35.2836 279.641 35.6917 278.014 36.3574C275.068 37.561 265.427 37.9066 261.946 36.9334C257.996 35.8287 254.07 32.1282 253.093 28.5882C250.839 20.4199 253.792 12.2262 260.004 9.40907C263.351 7.89078 270.805 7.71391 273.997 9.07711ZM232.587 18.2114C234.41 23.3658 235.977 27.4935 236.068 27.3828C236.161 27.2731 237.712 23.1318 239.517 18.1778L242.797 9.17235L246.915 8.9719C249.192 8.86034 251.017 9.01 250.999 9.30658C250.98 9.60044 247.584 18.1442 243.467 28.2535L235.969 46.6653L231.784 46.8658C229.441 46.9782 227.6 46.7869 227.6 46.4304C227.6 46.0785 228.466 43.8528 229.541 41.4429L231.483 37.0912L220.369 8.83767H229.273L232.587 18.2114ZM24.2181 6.8091C23.9959 7.36418 22.9628 10.3572 21.908 13.5036L19.9997 19.1949L22.0087 25.22C23.1243 28.5677 24.2108 31.4691 24.4521 31.7476C24.6934 32.026 25.7836 29.3377 26.8955 25.7225L28.9045 19.1949L26.7622 12.4995C25.5196 8.61672 24.4512 6.22591 24.2181 6.8091ZM66.426 31.1175L70.9111 30.6432C75.9331 30.1108 78.6051 28.8573 80.7419 26.0293C81.9228 24.4675 82.1595 23.2177 82.1595 18.5313C82.1595 13.844 81.9228 12.5951 80.7419 11.0323C78.6051 8.20524 75.9331 6.95088 70.9111 6.41938L66.426 5.94413V31.1175ZM103.057 18.7613C103.794 16.2843 105.345 14.1764 106.903 13.5352C107.802 13.1655 108.285 12.9668 108.776 12.9418C109.347 12.9129 109.93 13.1181 111.189 13.5615C113.224 14.278 114.737 16.5518 114.737 18.8955C114.737 20.1236 114.234 20.2342 108.677 20.2342C102.719 20.2342 102.626 20.2097 103.057 18.7613ZM133.731 18.7613C134.469 16.2843 136.02 14.1764 137.578 13.5352C138.477 13.1654 138.959 12.9667 139.451 12.9418C140.021 12.9129 140.604 13.1181 141.862 13.5615C143.899 14.278 145.411 16.5518 145.411 18.8955C145.411 20.1236 144.909 20.2342 139.352 20.2342C133.394 20.2342 133.3 20.2097 133.731 18.7613ZM167.142 15.1949L169.486 14.414C172.297 13.4762 174.713 13.888 176.516 15.6112C178.194 17.2175 178.762 25.5718 177.374 28.2501C176.112 30.6826 172.097 32.4739 169.151 31.9179L166.74 31.4635L167.142 15.1949ZM260.422 19.6201C260.422 17.4778 262.2 14.6063 264.037 13.7854C265.175 13.2766 266.869 13.0172 267.786 13.2104C269.996 13.6757 272.473 16.5327 272.473 18.6151C272.473 20.2042 272.406 20.2223 266.447 20.2223C263.1 20.2223 260.422 19.9547 260.422 19.6201Z" fill="url(#paint0_linear)"/>
<defs>
<linearGradient id="paint0_linear" x1="30.6702" y1="2.84792" x2="30.6702" y2="43.5955" gradientUnits="userSpaceOnUse">
<stop offset="0.499846" stop-color="#1CBBFF"/>
<stop offset="1" stop-color="#4F65DA"/>
</linearGradient>
</defs>
</svg>
