<svg width="268" height="44" viewBox="0 0 268 44" fill="none" xmlns="http://www.w3.org/2000/svg">
<path fill-rule="evenodd" clip-rule="evenodd" d="M25.1014 27.7105L22.3123 25.7311L39.0466 13.8552L34.8823 10.8999C32.5611 9.25264 28.7978 9.25264 26.4766 10.8999L5.57808 25.7311L30.6795 43.545L61.3589 21.7725L39.0852 5.96531C34.4428 2.67074 26.9161 2.67074 22.2738 5.96531L0 21.7725L2.78904 23.7518L24.3752 8.43262C27.8569 5.96169 33.502 5.96169 36.9838 8.43262L55.7809 21.7725L30.6795 39.5864L29.9919 39.0984C28.8313 38.2748 28.8313 36.9394 29.9919 36.1157L50.2028 21.7725L41.8356 15.8345L25.1014 27.7105ZM33.4685 13.8552L32.7809 13.3672C31.6203 12.5436 29.7386 12.5436 28.578 13.3672L11.1562 25.7311L20.8985 32.6451C23.2197 34.2924 26.9831 34.2924 29.3042 32.6451L44.6247 21.7725L41.8356 19.7932L27.2028 30.1778C26.0422 31.0014 24.1605 31.0014 23 30.1778L16.7343 25.7311L33.4685 13.8552Z" fill="url(#paint0_linear)"/>
<path d="M229.806 14.5855C231.265 14.5855 232.448 13.4029 232.448 11.9442C232.448 10.4854 231.265 9.30286 229.806 9.30286C228.347 9.30286 227.165 10.4854 227.165 11.9442C227.165 13.4029 228.347 14.5855 229.806 14.5855Z" fill="#555E62"/>
<path d="M82.4803 28.9659C81.0808 28.9659 80.1485 28.9646 79.4286 28.9155C78.7296 28.8678 78.4034 28.783 78.1979 28.6978C77.335 28.3404 76.6494 27.6548 76.2917 26.7918C76.2066 26.5863 76.1218 26.2601 76.0742 25.5611C76.0249 24.841 76.0238 23.9089 76.0238 22.5094C76.0238 21.1098 76.0249 20.1777 76.0742 19.4576C76.1218 18.7586 76.2066 18.4324 76.2917 18.2269C76.6494 17.364 77.335 16.6784 78.1979 16.3209C78.4034 16.2358 78.7296 16.1509 79.4286 16.1033C80.1485 16.0541 81.0808 16.0529 82.4803 16.0529H85.1216C85.2837 16.0529 85.4151 15.9215 85.4151 15.7594V11.6507C85.4151 11.4886 85.2837 11.3572 85.1216 11.3572H82.402C81.1012 11.3572 80.0081 11.3571 79.109 11.4185C78.1707 11.4825 77.2739 11.6211 76.4009 11.9827C74.3873 12.8167 72.7878 14.4164 71.9538 16.4299C71.5921 17.303 71.4534 18.1999 71.3895 19.138C71.3281 20.037 71.3281 21.1303 71.3281 22.4311V22.5876C71.3281 23.8884 71.3281 24.9817 71.3895 25.8807C71.4534 26.8188 71.5921 27.7157 71.9538 28.5888C72.7878 30.6023 74.3873 32.202 76.4009 33.036C77.2739 33.3977 78.1707 33.5362 79.109 33.6002C80.0081 33.6616 81.1012 33.6615 82.402 33.6615H85.1216C85.2837 33.6615 85.4151 33.5301 85.4151 33.3681V29.2594C85.4151 29.0973 85.2837 28.9659 85.1216 28.9659H82.4803Z" fill="#555E62"/>
<path fill-rule="evenodd" clip-rule="evenodd" d="M134.426 33.6615C134.264 33.6615 134.132 33.7929 134.132 33.955V38.0637C134.132 38.2258 134.001 38.3572 133.839 38.3572H129.73C129.568 38.3572 129.437 38.2258 129.437 38.0637V16.3463C129.437 16.1842 129.568 16.0529 129.73 16.0529H134.808C135.266 16.0527 135.627 16.0527 135.951 16.0782C139.981 16.3953 143.181 19.5959 143.498 23.6255C143.524 23.9463 143.524 24.3026 143.524 24.7532V24.9461C143.524 25.4038 143.524 25.7645 143.498 26.0889C143.181 30.1185 139.981 33.3191 135.951 33.6362C135.796 33.6484 135.632 33.6548 135.453 33.6581C135.258 33.6617 135.046 33.6616 134.808 33.6615L134.426 33.6615ZM134.719 20.7485C135.309 20.7485 135.468 20.7503 135.583 20.7594C137.31 20.8953 138.681 22.267 138.817 23.9939C138.826 24.1087 138.828 24.2675 138.828 24.8572C138.828 25.4469 138.826 25.6057 138.817 25.7205C138.681 27.4474 137.31 28.8191 135.583 28.955C135.468 28.9641 135.309 28.9659 134.719 28.9659H134.426C134.264 28.9659 134.132 28.8345 134.132 28.6724V21.042C134.132 20.8799 134.264 20.7485 134.426 20.7485H134.719Z" fill="#555E62"/>
<path fill-rule="evenodd" clip-rule="evenodd" d="M262.089 15.7594C262.089 15.9215 261.957 16.0528 261.795 16.0528L261.413 16.0528C260.955 16.0527 260.594 16.0527 260.27 16.0782C256.24 16.3953 253.04 19.5959 252.723 23.6255C252.697 23.9463 252.697 24.3026 252.697 24.7532V24.9612C252.697 25.4117 252.697 25.7681 252.723 26.0889C253.04 30.1185 256.24 33.319 260.27 33.6362C260.594 33.6617 260.955 33.6616 261.413 33.6615H266.491C266.653 33.6615 266.784 33.5301 266.784 33.3681V11.6507C266.784 11.4886 266.653 11.3572 266.491 11.3572H262.382C262.22 11.3572 262.089 11.4886 262.089 11.6507V15.7594ZM260.639 28.955C260.753 28.9641 260.912 28.9659 261.502 28.9659H261.795C261.957 28.9659 262.089 28.8345 262.089 28.6724V21.042C262.089 20.8799 261.957 20.7485 261.795 20.7485H261.502C260.912 20.7485 260.753 20.7503 260.639 20.7594C258.912 20.8953 257.54 22.2669 257.404 23.9939C257.395 24.1087 257.393 24.2675 257.393 24.8572C257.393 25.4469 257.395 25.6057 257.404 25.7204C257.54 27.4474 258.912 28.8191 260.639 28.955Z" fill="#555E62"/>
<path d="M168.763 11.6507C168.763 11.4886 168.631 11.3572 168.469 11.3572H164.361C164.199 11.3572 164.067 11.4886 164.067 11.6507V26.0311C164.067 30.471 167.588 34.0886 171.991 34.2433C172.153 34.249 172.285 34.1171 172.285 33.955V29.8463C172.285 29.6842 172.153 29.5541 171.991 29.5408C170.184 29.3917 168.763 27.8773 168.763 26.0311V21.042C168.763 20.8799 168.894 20.7485 169.056 20.7485H171.991C172.153 20.7485 172.285 20.6171 172.285 20.455V16.3463C172.285 16.1842 172.153 16.0529 171.991 16.0529H169.056C168.894 16.0529 168.763 15.9215 168.763 15.7594V11.6507Z" fill="#555E62"/>
<path d="M196.35 16.3793C196.35 16.5949 196.575 16.7377 196.775 16.6564C197.645 16.3021 198.589 16.0927 199.578 16.058C199.74 16.0523 199.871 16.1842 199.871 16.3463V20.455C199.871 20.6171 199.74 20.7472 199.578 20.7605C197.77 20.9096 196.35 22.424 196.35 24.2702V33.3681C196.35 33.5301 196.218 33.6615 196.056 33.6615H191.948C191.785 33.6615 191.654 33.5301 191.654 33.3681V16.3463C191.654 16.1842 191.785 16.0529 191.948 16.0529H196.056C196.218 16.0529 196.35 16.1842 196.35 16.3463V16.3793Z" fill="#555E62"/>
<path fill-rule="evenodd" clip-rule="evenodd" d="M101.85 27.205C101.85 31.095 98.6964 34.2485 94.8064 34.2485C90.9163 34.2485 87.7629 31.095 87.7629 27.205V22.5094C87.7629 18.6194 90.9163 15.4659 94.8064 15.4659C98.6964 15.4659 101.85 18.6194 101.85 22.5094V27.205ZM94.8064 29.5528C96.1029 29.5528 97.1542 28.5017 97.1542 27.205V22.5094C97.1542 21.2127 96.1029 20.1615 94.8064 20.1615C93.5098 20.1615 92.4585 21.2127 92.4585 22.5094V27.205C92.4585 28.5017 93.5098 29.5528 94.8064 29.5528Z" fill="#555E62"/>
<path fill-rule="evenodd" clip-rule="evenodd" d="M183.437 28.9659C183.202 28.9659 183.035 28.9656 182.912 28.9647C182.727 28.9633 182.643 28.9605 182.573 28.955C181.564 28.8756 180.676 28.3737 180.085 27.6255C179.945 27.4481 180.082 27.205 180.308 27.205H188.426C188.588 27.205 188.719 27.0736 188.719 26.9115V22.5094C188.719 18.6194 185.566 15.4659 181.676 15.4659C177.786 15.4659 174.632 18.6194 174.632 22.5094V24.9461C174.632 25.4038 174.632 25.7645 174.658 26.0889C174.975 30.1185 178.175 33.3191 182.205 33.6362C182.529 33.6617 182.89 33.6616 183.348 33.6615H186.078C186.24 33.6615 186.371 33.5301 186.371 33.3681V29.2594C186.371 29.0973 186.24 28.9659 186.078 28.9659H183.437ZM184.006 22.2165C184.026 22.3773 183.892 22.5094 183.73 22.5094H179.621C179.459 22.5094 179.326 22.3773 179.346 22.2165C179.49 21.058 180.478 20.1615 181.676 20.1615C182.873 20.1615 183.861 21.058 184.006 22.2165Z" fill="#555E62"/>
<path d="M153.502 33.6615C149.612 33.6615 146.458 30.5081 146.458 26.6181V16.3463C146.458 16.1842 146.59 16.0529 146.752 16.0529H150.861C151.023 16.0529 151.154 16.1842 151.154 16.3463V26.6181C151.154 27.9147 152.205 28.9659 153.502 28.9659C154.799 28.9659 155.85 27.9147 155.85 26.6181V16.3463C155.85 16.1842 155.981 16.0529 156.143 16.0529H160.252C160.414 16.0529 160.545 16.1842 160.545 16.3463V33.3681C160.545 33.5301 160.414 33.6615 160.252 33.6615H153.502Z" fill="#555E62"/>
<path d="M240.371 23.0963V33.3681C240.371 33.5301 240.24 33.6615 240.078 33.6615H235.969C235.807 33.6615 235.676 33.5301 235.676 33.3681V16.3463C235.676 16.1842 235.807 16.0529 235.969 16.0529H242.719C246.609 16.0529 249.763 19.2063 249.763 23.0963V33.3681C249.763 33.5301 249.631 33.6615 249.469 33.6615H245.361C245.198 33.6615 245.067 33.5301 245.067 33.3681V23.0963C245.067 21.7997 244.016 20.7485 242.719 20.7485C241.423 20.7485 240.371 21.7997 240.371 23.0963Z" fill="#555E62"/>
<path d="M209.263 16.0529C210.737 16.0529 212.095 16.5467 213.182 17.3778C213.293 17.4633 213.449 17.4633 213.561 17.3778C214.648 16.5467 216.006 16.0529 217.48 16.0529C221.046 16.0529 223.937 18.9435 223.937 22.5094V33.3681C223.937 33.5301 223.805 33.6615 223.643 33.6615H219.534C219.372 33.6615 219.241 33.5301 219.241 33.3681V22.5094C219.241 21.5369 218.453 20.7485 217.48 20.7485C216.508 20.7485 215.719 21.5369 215.719 22.5094V33.3681C215.719 33.5301 215.588 33.6615 215.426 33.6615H211.317C211.155 33.6615 211.024 33.5301 211.024 33.3681V22.5094C211.024 21.5369 210.235 20.7485 209.263 20.7485C208.29 20.7485 207.502 21.5369 207.502 22.5094V33.3681C207.502 33.5301 207.37 33.6615 207.208 33.6615H203.1C202.938 33.6615 202.806 33.5301 202.806 33.3681V16.3463C202.806 16.1842 202.938 16.0529 203.1 16.0529H209.263Z" fill="#555E62"/>
<path d="M115.54 17.3778C115.428 17.4633 115.272 17.4633 115.16 17.3778C114.073 16.5467 112.715 16.0529 111.241 16.0529H105.078C104.916 16.0529 104.785 16.1842 104.785 16.3463V33.3681C104.785 33.5301 104.916 33.6615 105.078 33.6615H109.187C109.349 33.6615 109.48 33.5301 109.48 33.3681V22.5094C109.48 21.5369 110.269 20.7485 111.241 20.7485C112.214 20.7485 113.002 21.5369 113.002 22.5094V33.3681C113.002 33.5301 113.133 33.6615 113.295 33.6615H117.404C117.566 33.6615 117.698 33.5301 117.698 33.3681V22.5094C117.698 21.5369 118.486 20.7485 119.459 20.7485C120.431 20.7485 121.219 21.5369 121.219 22.5094V33.3681C121.219 33.5301 121.351 33.6615 121.513 33.6615H125.622C125.784 33.6615 125.915 33.5301 125.915 33.3681V22.5094C125.915 18.9435 123.024 16.0529 119.459 16.0529C117.985 16.0529 116.626 16.5467 115.54 17.3778Z" fill="#555E62"/>
<path d="M227.752 33.6615C227.59 33.6615 227.458 33.5301 227.458 33.3681V16.3463C227.458 16.1842 227.59 16.0529 227.752 16.0529H231.861C232.023 16.0529 232.154 16.1842 232.154 16.3463V33.3681C232.154 33.5301 232.023 33.6615 231.861 33.6615H227.752Z" fill="#555E62"/>
<defs>
<linearGradient id="paint0_linear" x1="30.6702" y1="2.84792" x2="30.6702" y2="43.5955" gradientUnits="userSpaceOnUse">
<stop offset="0.499846" stop-color="#1CBBFF"/>
<stop offset="1" stop-color="#4F65DA"/>
</linearGradient>
</defs>
</svg>
