<?xml version="1.0" standalone="no"?>
<!DOCTYPE svg PUBLIC "-//W3C//DTD SVG 20010904//EN"
 "http://www.w3.org/TR/2001/REC-SVG-20010904/DTD/svg10.dtd">
<svg version="1.0" xmlns="http://www.w3.org/2000/svg"
 width="293.000000pt" height="293.000000pt" viewBox="0 0 293.000000 293.000000"
 preserveAspectRatio="xMidYMid meet">
<metadata>
Created by potrace 1.11, written by Peter Selinger 2001-2013
</metadata>
<g transform="translate(0.000000,293.000000) scale(0.100000,-0.100000)"
fill="#000000" stroke="none">
<path d="M1280 2321 c-36 -10 -91 -29 -123 -44 -31 -14 -290 -191 -575 -393
-284 -203 -532 -378 -549 -390 l-33 -22 53 -39 c72 -54 74 -55 95 -44 10 6
248 173 528 372 280 199 532 372 559 385 116 54 268 63 396 24 43 -13 100 -42
151 -76 77 -53 533 -375 718 -508 47 -34 102 -73 122 -86 21 -14 38 -27 38
-30 -1 -3 -109 -81 -242 -175 -133 -93 -401 -284 -597 -423 l-355 -253 -25 19
c-14 10 -33 31 -41 45 -25 44 -5 75 100 149 144 103 218 156 425 302 105 75
198 141 207 148 9 7 71 51 137 98 67 47 121 88 121 92 0 3 -24 22 -52 41 -29
20 -116 81 -193 136 -77 55 -143 101 -146 101 -3 0 -134 -91 -290 -202 -350
-248 -369 -261 -447 -316 l-63 -44 -64 43 c-36 24 -65 46 -65 49 0 3 172 127
381 275 210 149 388 275 397 281 12 9 2 20 -59 65 -170 125 -201 139 -304 144
-111 5 -177 -19 -305 -114 -30 -23 -64 -47 -75 -55 -29 -21 -511 -363 -570
-404 -137 -97 -260 -185 -264 -188 -3 -3 58 -48 284 -208 66 -47 129 -92 140
-100 23 -17 320 -227 499 -354 66 -46 133 -94 150 -106 17 -11 38 -28 47 -36
10 -8 31 -23 47 -32 l29 -17 234 166 c189 134 454 322 539 383 8 6 155 110
325 231 171 122 323 229 338 239 l28 18 -163 116 c-90 65 -296 211 -458 326
-162 115 -329 234 -370 265 -94 70 -195 121 -289 145 -97 25 -279 25 -371 1z
m267 -442 c24 -11 43 -25 43 -30 0 -5 -12 -17 -27 -26 -16 -10 -35 -23 -43
-30 -8 -7 -132 -95 -275 -196 -143 -101 -302 -213 -353 -250 l-92 -65 32 -23
c18 -13 38 -27 43 -32 38 -32 242 -170 262 -178 37 -14 100 -11 135 7 35 18
108 69 467 324 140 100 260 179 267 176 8 -3 39 -24 69 -47 l55 -41 -108 -76
c-59 -41 -230 -163 -380 -269 -150 -107 -291 -201 -315 -210 -57 -22 -198 -21
-256 1 -24 9 -121 71 -215 138 -94 66 -204 144 -243 172 -40 28 -73 54 -73 57
0 3 26 24 58 46 31 22 217 154 412 293 195 139 369 258 385 266 44 19 103 17
152 -7z"/>
</g>
</svg>
