<svg width="150" height="120" viewBox="0 0 150 120" fill="none" xmlns="http://www.w3.org/2000/svg">
<g clip-path="url(#clip0)">
<path d="M125.25 114.142L130.729 117.354H19.4569L24.9355 114.142H125.25ZM125.439 111.496H24.7466C24.5576 111.496 24.1798 111.496 23.9909 111.685L14.734 116.976C13.2226 117.732 13.9783 120 15.4896 120H134.885C136.585 120 137.152 117.921 135.641 116.976L126.384 111.685C126.006 111.496 125.817 111.496 125.439 111.496Z" fill="white"/>
<path d="M132.809 9.25968C134.32 9.25968 135.453 10.3935 135.453 11.9054V86.1731C135.453 87.6849 134.32 88.8187 132.809 88.8187H17.0026C15.4912 88.8187 14.3577 87.6849 14.3577 86.1731V11.9054C14.3577 10.3935 15.4912 9.25968 17.0026 9.25968H132.809ZM132.809 6.61401H17.0026C13.9799 6.61401 11.7129 9.07071 11.7129 11.9054V86.1731C11.7129 89.1967 14.1688 91.4644 17.0026 91.4644H132.809C135.831 91.4644 138.098 89.0077 138.098 86.1731V11.9054C138.098 9.07071 135.831 6.61401 132.809 6.61401Z" fill="white"/>
<path d="M27.2051 104.882H123.553" stroke="white" stroke-width="3" stroke-miterlimit="10" stroke-linecap="round"/>
<path d="M144.521 2.83463C146.033 2.83463 147.166 3.96849 147.166 5.4803V92.7874C147.166 94.2992 146.033 95.4331 144.521 95.4331H5.28967C3.77834 95.4331 2.64484 94.2992 2.64484 92.7874V5.4803C2.64484 3.96849 3.77834 2.83463 5.28967 2.83463H144.521ZM144.521 0.188965H5.28967C2.45592 0.188965 0 2.45668 0 5.4803V92.7874C0 95.811 2.45592 98.2677 5.28967 98.2677H144.521C147.544 98.2677 149.811 95.811 149.811 92.9764V5.4803C150 2.45668 147.544 0.188965 144.521 0.188965Z" fill="white"/>
<path d="M30.0379 32.6929C30.7936 33.6378 31.7382 34.2047 33.0606 34.3937C33.2495 34.3937 33.4384 34.3937 33.6273 34.3937C33.8163 34.3937 34.0052 34.3937 34.1941 34.3937C34.5719 34.3937 34.7608 34.3937 35.1387 34.3937C36.0833 34.3937 37.2168 34.2047 38.1613 33.4488C38.1613 33.6378 38.1613 33.8268 38.1613 34.0157C38.1613 34.9606 38.1613 35.9055 38.1613 36.6614C38.1613 36.6614 38.1613 36.8504 37.9724 36.8504C37.9724 37.0394 37.7835 37.2283 37.7835 37.4173C37.7835 37.6063 37.5946 37.6063 37.5946 37.7953C37.4057 38.1732 37.2168 38.7402 37.0278 39.1181C36.4611 41.3858 37.5946 43.0866 39.6727 43.8425L40.0505 44.0315C41.3729 44.4094 42.6953 44.7874 44.0178 44.9764C45.718 45.1653 47.4183 45.3543 49.3074 45.5433C51.0077 45.7323 52.8969 45.9213 54.5971 46.1102C57.053 46.4882 60.4535 46.8661 63.6651 47.622C64.7986 47.811 65.9321 48.189 67.0656 48.5669C67.6324 48.7559 68.1991 48.9449 68.7659 49.1339H68.9548C69.1437 49.1339 69.3326 49.3228 69.5215 49.3228C70.0883 49.5118 70.655 49.5118 71.2218 49.5118C71.5996 49.5118 71.9775 49.5118 72.5442 49.3228C72.1664 51.2126 71.9775 52.9134 71.7885 54.6142C71.7885 55.1811 71.5996 55.937 71.4107 56.5039C70.844 57.6378 70.0883 58.7716 69.5215 60.0945L68.9548 60.8504C67.6324 62.9291 68.388 64.6299 68.9548 65.3858C69.5215 66.1417 70.0883 66.8976 70.655 67.6535C70.655 67.8425 70.655 67.8425 70.655 68.0315C70.4661 67.6535 70.0883 67.4646 69.7105 67.2756L67.2545 65.7638L65.9321 68.2205C65.7432 67.4646 65.3654 66.8976 64.7986 66.3307C64.2319 65.5748 63.4762 65.1968 62.9095 64.8189C62.3427 64.4409 61.776 64.063 61.0203 63.685C60.2646 63.3071 59.509 62.7401 58.7533 62.3622C55.7306 60.4724 53.2747 59.1496 50.6299 58.3937C49.6853 58.2047 48.7407 58.0157 48.1739 57.8268C47.985 57.8268 47.7961 57.8268 47.7961 57.8268C46.0959 57.8268 44.7734 58.7716 44.3956 60.4724C43.8289 62.7401 43.6399 64.8189 43.8289 66.7086C43.8289 67.4646 44.0178 68.4094 44.0178 69.1653C43.451 67.6535 42.8843 65.9527 42.1286 64.252C41.9397 63.874 41.9397 63.685 41.7508 63.3071C41.5619 62.7401 41.3729 62.3622 41.184 61.7953C40.4283 60.0945 38.917 58.9606 37.7835 58.0157L37.5946 57.8268C36.2722 56.6929 35.3276 55.748 34.383 54.6142C33.8163 53.8583 33.4384 52.7244 33.0606 51.2126C32.6828 49.1339 32.6828 46.8661 32.4938 44.5984V44.2205C32.4938 41.7638 32.116 39.4961 31.3603 37.4173C31.1714 36.6614 30.7936 36.0945 30.4158 35.7165C30.0379 35.1496 29.849 34.5827 29.849 34.2047C30.0379 34.0157 30.0379 33.4488 30.0379 32.6929ZM71.7885 20.0315C71.4107 20.0315 71.2218 20.0315 70.844 20.0315C70.0883 20.4094 70.0883 20.5984 70.2772 21.3543C70.2772 21.5433 70.2772 21.5433 70.4661 21.7323C71.0329 22.8661 71.4107 23.811 71.9775 24.9449C72.922 27.0236 73.4888 29.2913 73.8666 31.5591C74.2445 34.2047 74.2445 36.8504 73.8666 39.4961C73.4888 41.5748 73.2999 43.4646 72.7331 45.5433C72.3553 46.6772 71.9775 47.2441 71.0329 47.2441C70.844 47.2441 70.4661 47.2441 70.0883 47.0551C69.8994 47.0551 69.7105 46.8661 69.5215 46.8661C67.6324 46.2992 65.9321 45.5433 64.043 45.1653C61.0203 44.5984 57.8087 44.0315 54.786 43.6535C51.1966 43.2756 47.7961 42.8976 44.2067 42.5197C42.8843 42.3307 41.5618 41.9527 40.2394 41.5748C39.4838 41.3858 39.2948 41.0079 39.4838 40.063C39.6727 39.4961 39.8616 38.9291 40.0505 38.5512C40.2394 37.9842 40.4283 37.6063 40.6173 37.0394C40.6173 36.0945 40.8062 34.9606 40.6173 33.8268C40.6173 33.2598 40.6173 32.8819 40.8062 32.315C41.184 31.3701 41.3729 30.4252 41.5618 29.4803C41.7508 28.5354 41.7508 27.4016 40.8062 26.6457C40.6173 26.4567 40.4284 26.4567 40.0505 26.4567C39.8616 26.4567 39.4838 26.6457 39.2948 26.8346C39.1059 27.0236 38.917 27.4016 38.7281 27.5905C38.1613 28.5354 37.5946 29.4803 37.0278 30.4252C36.4611 31.3701 35.7054 31.937 34.7608 31.937C34.5719 31.937 34.383 31.937 34.383 31.937C34.0052 31.937 33.6273 31.937 33.2495 31.748C32.6828 31.748 32.3049 31.3701 32.116 30.9921C31.7382 30.2362 31.3603 29.6693 30.9825 28.9134C30.4158 28.1575 29.849 27.4016 29.0933 26.8346C28.9044 26.6457 28.5266 26.6457 28.3377 26.6457C27.9598 26.6457 27.582 26.8346 27.3931 27.4016C27.0153 28.3465 27.0153 29.2913 27.2042 30.4252C27.2042 31.748 27.582 33.0709 27.582 34.5827C27.3931 35.7165 27.7709 36.8504 28.5266 37.7953C28.7155 38.1732 29.0933 38.5512 29.0933 38.9291C29.6601 40.8189 30.0379 42.8976 30.0379 44.9764C30.0379 47.4331 30.2268 49.8898 30.6047 52.1575C30.9825 53.8583 31.3603 55.3701 32.3049 56.8819C33.4384 58.2047 34.5719 59.3386 35.8943 60.4724C37.0278 61.4173 37.9724 62.1732 38.5392 63.4961C38.917 64.252 39.1059 65.0079 39.4838 65.7638C40.8062 68.7874 41.9397 71.811 42.5064 75.0236C42.6954 75.5905 42.5064 76.1575 41.9397 76.5354C41.5619 76.9134 41.184 77.1024 40.8062 77.4803C40.2394 77.8583 39.6727 78.4252 39.8616 79.1811C40.0505 79.937 40.6173 80.126 41.184 80.3149C41.3729 80.3149 41.5618 80.5039 41.5618 80.5039C41.9397 80.5039 42.5064 80.5039 42.8843 80.5039C43.2621 80.3149 43.451 80.315 43.8289 80.126C44.5845 79.937 44.9624 79.3701 45.1513 78.8031C46.0959 74.8346 46.8515 70.8661 46.4737 66.7086C46.2848 65.0079 46.4737 63.3071 47.0404 61.6063C47.2294 61.2283 47.4183 60.8504 47.7961 60.8504C47.7961 60.8504 47.7961 60.8504 47.985 60.8504C48.7407 60.8504 49.3074 61.0394 50.0631 61.2283C52.7079 61.9842 55.1639 63.3071 57.6198 64.8189C58.9422 65.7638 60.2646 66.5197 61.776 67.2756C62.3427 67.6535 62.7205 67.8425 63.0984 68.2205C63.854 69.1653 63.854 70.1102 62.9095 71.0551C62.1538 71.811 61.2092 72.5669 60.4535 73.3228C60.2646 73.5118 59.8868 73.7008 59.5089 73.7008C59.32 73.7008 59.1311 73.7008 59.1311 73.7008C58.7533 73.7008 58.5644 73.5118 58.1865 73.5118C57.8087 73.5118 57.6198 73.5118 57.2419 73.7008C56.8641 73.8898 56.6752 74.2677 56.4863 74.6457C56.1084 75.2126 56.4863 75.7795 57.053 76.1575C57.6198 76.3464 57.9976 76.5354 58.5644 76.5354C58.9422 76.5354 59.32 76.5354 59.5089 76.3464C61.776 75.7795 63.4762 74.6457 65.3654 73.3228C66.6878 72.189 67.8213 71.0551 68.577 69.5433C68.9548 69.9212 69.3326 70.6772 69.3326 71.2441C68.9548 72.7559 68.388 74.0787 67.8213 75.5905C67.6324 76.1575 67.0656 76.3464 66.6878 76.3464C66.31 76.3464 65.7432 76.5354 65.5543 76.7244C64.9875 77.1023 64.9875 77.6693 65.1765 78.0472C65.3654 78.6142 65.7432 79.1811 66.4989 79.1811C66.6878 79.1811 66.6878 79.1811 66.8767 79.1811C68.0102 79.1811 69.1437 78.9921 70.2772 78.2362C70.4661 78.2362 70.4661 78.0472 70.4661 77.8583C71.4107 75.4016 72.5442 72.7559 73.4888 70.2992C73.8666 69.5433 73.8666 68.5984 74.0555 67.6535C74.0555 67.0866 73.8666 66.5197 73.4888 66.1417C72.9221 65.3858 72.3553 64.8189 71.7885 64.063C71.4107 63.4961 71.5996 62.9291 71.7885 62.3622C72.7331 60.8504 73.6777 59.3386 74.4334 57.8268C74.8112 56.8819 75.0001 55.937 75.189 54.9921C75.378 52.5354 75.7558 50.0787 76.5115 47.622C77.8339 43.4646 78.2117 39.3071 78.2117 34.9606C78.2117 31.937 77.8339 28.9134 76.8893 25.8898C76.5115 24.5669 75.9447 23.0551 75.0001 21.9213C73.4888 20.9764 72.7331 20.4094 71.7885 20.0315Z" fill="white"/>
<path d="M111.082 36.2834C116.183 37.0393 120.717 40.2519 123.173 44.7873L111.082 49.1338V36.2834ZM108.438 33.2598V52.9133L126.951 46.1102C124.118 38.7401 116.939 33.2598 108.438 33.2598Z" fill="white"/>
<path d="M102.014 41.5746V58.3935V62.1731L105.604 60.8502L121.284 55.1809C121.473 56.3148 121.662 57.2597 121.662 58.3935C121.662 67.8424 114.105 75.4014 104.659 75.4014C97.4802 75.4014 91.0571 70.866 88.7901 64.2518C88.0344 62.362 87.8455 60.4723 87.8455 58.3935C87.8455 53.8581 89.5457 49.5116 92.7573 46.299C95.2132 43.8424 98.4248 42.1416 102.014 41.5746ZM104.659 38.74C93.8908 38.74 85.0117 47.6219 85.0117 58.3935C85.0117 60.8502 85.3895 62.929 86.1452 65.1967C88.979 72.7557 96.1578 78.0471 104.659 78.0471C115.427 78.0471 124.306 69.1652 124.306 58.3935C124.306 56.1258 123.929 53.8581 123.173 51.5904L104.659 58.3935V38.74Z" fill="white"/>
</g>
<defs>
<clipPath id="clip0">
<rect width="150" height="120" fill="white"/>
</clipPath>
</defs>
</svg>
