<svg width="150" height="120" viewBox="0 0 150 120" fill="none" xmlns="http://www.w3.org/2000/svg">
<g clip-path="url(#clip0)">
<path d="M125.25 114.142L130.729 117.354H19.4569L24.9355 114.142H125.25ZM125.439 111.496H24.7466C24.5576 111.496 24.1798 111.496 23.9909 111.685L14.734 116.976C13.2226 117.732 13.9783 120 15.4896 120H134.885C136.585 120 137.152 117.921 135.641 116.976L126.384 111.685C126.006 111.496 125.817 111.496 125.439 111.496Z" fill="white"/>
<path d="M132.809 9.25968C134.32 9.25968 135.453 10.3935 135.453 11.9054V86.1731C135.453 87.6849 134.32 88.8187 132.809 88.8187H17.0026C15.4912 88.8187 14.3577 87.6849 14.3577 86.1731V11.9054C14.3577 10.3935 15.4912 9.25968 17.0026 9.25968H132.809ZM132.809 6.61401H17.0026C13.9799 6.61401 11.7129 9.07071 11.7129 11.9054V86.1731C11.7129 89.1967 14.1688 91.4644 17.0026 91.4644H132.809C135.831 91.4644 138.098 89.0077 138.098 86.1731V11.9054C138.098 9.07071 135.831 6.61401 132.809 6.61401Z" fill="white"/>
<path d="M27.2051 104.882H123.553" stroke="white" stroke-width="3" stroke-miterlimit="10" stroke-linecap="round"/>
<path d="M144.521 2.83463C146.033 2.83463 147.166 3.96849 147.166 5.4803V92.7874C147.166 94.2992 146.033 95.4331 144.521 95.4331H5.28967C3.77834 95.4331 2.64484 94.2992 2.64484 92.7874V5.4803C2.64484 3.96849 3.77834 2.83463 5.28967 2.83463H144.521ZM144.521 0.188965H5.28967C2.45592 0.188965 0 2.45668 0 5.4803V92.7874C0 95.811 2.45592 98.2677 5.28967 98.2677H144.521C147.544 98.2677 149.811 95.811 149.811 92.9764V5.4803C150 2.45668 147.544 0.188965 144.521 0.188965Z" fill="white"/>
<path d="M60.4535 23.622C60.8314 24.3779 61.3981 24.9448 62.1538 25.5117C62.7205 25.8897 63.0984 26.2676 63.2873 26.8346C63.4762 27.2125 63.4762 27.5905 63.6651 27.7795C63.854 28.1574 63.854 28.7243 64.0429 29.1023C64.2319 29.6692 64.4208 30.2361 64.7986 30.9921C64.6097 31.181 64.4208 31.37 63.6651 31.37C63.0984 31.37 62.5316 31.37 61.9649 31.37C61.587 31.37 61.2092 31.37 60.8314 31.37C60.6424 31.37 60.2646 31.37 60.0757 31.37H59.8868L58.1865 31.559C58.1865 30.9921 57.9976 30.4251 57.6198 29.8582C56.8641 28.3464 57.053 27.0235 58.1865 25.8897C58.9422 25.1338 59.6979 24.3779 60.4535 23.622ZM57.4309 34.9606C57.4309 35.5275 57.4309 35.9054 57.6198 36.4724C57.8087 39.118 57.8087 42.1417 56.8641 45.1653C56.6752 45.9212 56.2974 46.4881 55.9195 47.244C55.1639 48.7558 54.786 50.4566 54.786 52.1574C54.786 52.5354 54.786 52.9133 54.786 53.4802C54.786 53.6692 54.786 53.8582 54.786 54.0472H53.4636H47.2293H40.8062V52.1574C40.8062 50.6456 40.8062 49.1338 40.8062 47.622C40.8062 41.9527 45.3402 37.0393 50.8188 36.4724C51.5744 36.4724 52.3301 36.4724 53.2747 36.4724C53.6525 36.4724 54.0304 36.4724 54.2193 36.4724C55.5417 36.4724 56.6752 35.9054 57.4309 34.9606ZM62.7205 17.1968C62.7205 17.1968 62.7205 17.3858 62.5316 17.3858C60.4535 19.6535 58.3754 21.7322 56.1084 23.9999C54.2193 26.0787 53.8414 28.5354 54.9749 30.9921C55.1639 31.37 55.3528 31.9369 55.3528 32.5039C55.3528 33.2598 54.9749 33.6377 54.2193 33.6377C53.0858 33.6377 51.7633 33.6377 50.6298 33.8267C43.6399 34.5826 38.1613 40.6299 38.1613 47.622C38.1613 49.7007 38.1613 51.9684 38.1613 54.0472C38.1613 54.2362 38.1613 54.4251 38.1613 54.6141C37.4057 54.6141 36.4611 54.6141 35.7054 54.6141C35.1387 54.6141 34.7608 54.6141 34.1941 54.6141C33.0606 54.4251 31.9271 54.2361 30.9825 53.8582C28.1487 52.7243 27.3931 48.7558 29.6601 46.6771C30.4157 45.9212 31.3603 45.5432 32.116 44.9763C33.0606 44.4094 34.0052 43.8424 34.9497 43.2755C36.2722 42.3306 37.2168 41.1968 37.5946 39.496C38.3503 36.2834 37.4057 33.0708 34.0052 30.9921C31.7382 29.6692 29.2822 29.1023 26.6374 28.7243H26.4485C25.8817 28.7243 25.5039 29.1023 25.5039 29.6692C25.5039 30.2361 25.8817 30.6141 26.4485 30.8031C27.9598 31.181 29.6601 31.559 31.1714 31.9369C32.3049 32.3149 33.4384 32.8818 34.383 33.8267C36.0833 35.5275 36.8389 39.496 33.8162 41.5747C33.0606 42.1417 32.116 42.5196 31.3603 43.0865C30.6047 43.6535 29.849 44.0314 29.0933 44.5984C27.582 45.7322 26.6374 47.244 26.4485 49.1338C26.0707 52.5354 27.7709 55.181 30.9825 56.3149C32.3049 56.6928 33.6273 56.8818 34.9497 56.8818C39.1059 56.8818 43.2621 56.8818 47.2293 56.8818C51.3855 56.8818 55.7306 56.8818 59.8868 56.8818C60.0757 56.8818 60.2646 56.8818 60.4535 56.8818C60.4535 55.748 60.0757 55.181 59.1311 54.8031C58.7533 54.6141 58.5644 54.6141 58.1865 54.6141C57.8087 54.6141 57.6198 54.4251 57.6198 54.0472C57.6198 53.4802 57.4309 52.9133 57.4309 52.3464C57.4309 51.0236 57.6198 49.7007 58.1865 48.5669C58.5644 47.811 58.9422 46.8661 59.32 46.1102C60.2646 42.8976 60.2646 39.8739 60.0757 36.4724C60.0757 35.7165 59.8868 35.1495 59.8868 34.3936C60.2646 34.3936 60.4535 34.3936 60.8314 34.3936C61.7759 34.3936 62.7205 34.3936 63.6651 34.2047C64.9875 34.2047 66.3099 33.6377 67.0656 32.5039C67.6324 31.748 67.6324 30.8031 67.2545 30.0472C67.0656 29.4802 66.8767 29.1023 66.6878 28.5354C66.4989 27.7795 66.121 27.0235 65.9321 26.2676C65.5543 24.9448 64.6097 23.9999 63.4762 23.433C63.0984 23.244 63.0984 23.055 63.0984 22.6771C62.9094 20.5984 62.9094 19.0865 62.7205 17.1968C62.7205 17.3858 62.7205 17.3858 62.7205 17.1968Z" fill="white"/>
<path d="M74.6227 40.063V41.5748H73.1113" stroke="white" stroke-width="1.4173" stroke-miterlimit="10"/>
<path d="M71.2759 41.5747H49.1172" stroke="white" stroke-width="1.4173" stroke-miterlimit="10" stroke-dasharray="1.19 1.19"/>
<path d="M47.607 41.5748H46.0957V40.063" stroke="white" stroke-width="1.4173" stroke-miterlimit="10"/>
<path d="M46.0957 38.2283V16.063" stroke="white" stroke-width="1.4173" stroke-miterlimit="10" stroke-dasharray="1.19 1.19"/>
<path d="M46.0957 14.7401V13.2283H47.607" stroke="white" stroke-width="1.4173" stroke-miterlimit="10"/>
<path d="M49.5 13.2283H71.6587" stroke="white" stroke-width="1.4173" stroke-miterlimit="10" stroke-dasharray="1.19 1.19"/>
<path d="M73.1113 13.2283H74.6227V14.7401" stroke="white" stroke-width="1.4173" stroke-miterlimit="10"/>
<path d="M74.6211 16.5747V38.7401" stroke="white" stroke-width="1.4173" stroke-miterlimit="10" stroke-dasharray="1.19 1.19"/>
<path d="M101.45 64.0629C106.74 64.6299 111.652 65.1968 116.375 65.7637C116.564 65.7637 116.941 65.7637 117.13 65.7637C117.319 65.7637 117.319 65.7637 117.319 65.7637C117.319 65.9527 117.319 65.9527 117.319 66.1417C117.319 68.4094 117.319 70.8661 117.319 73.1338L115.241 73.3228H114.674H113.163C112.596 72.1889 111.463 71.622 109.952 71.622C107.307 71.622 104.662 71.433 101.639 71.244C101.45 71.244 101.45 71.244 101.261 71.244C99.75 71.244 98.6165 71.9999 98.0498 73.1338H96.1606H95.7828H95.216C95.216 72.7558 95.216 72.3779 95.216 71.9999C95.216 71.244 95.0271 70.4881 95.0271 69.9212C95.0271 69.7322 95.0271 69.5432 94.8382 69.3543C96.7274 67.8425 98.8055 66.1417 101.45 64.0629ZM122.609 57.0708C122.042 57.0708 121.475 57.4488 120.909 58.3936C119.964 59.7165 119.02 61.0393 118.264 62.5511C117.886 63.118 117.508 63.307 117.13 63.307C116.941 63.307 116.941 63.307 116.753 63.307C111.652 62.7401 106.362 61.9842 101.261 61.4173C101.261 61.4173 101.261 61.4173 101.072 61.4173C100.695 61.4173 100.506 61.6062 100.128 61.6062C97.483 63.685 95.0271 65.7637 92.5712 67.8425C92.3823 68.0314 92.1934 68.5984 92.1934 68.9763C92.1934 69.9212 92.5712 71.055 92.5712 71.9999C92.5712 74.2676 92.5712 76.7243 92.5712 78.9921C92.5712 80.8818 92.5712 82.9606 92.5712 84.8503C93.5158 84.8503 94.2714 84.8503 95.0271 84.8503C95.4049 81.8267 95.4049 78.6141 95.9717 75.5905C96.1606 75.5905 96.3495 75.5905 96.3495 75.5905C96.7274 78.6141 97.2941 81.8267 97.672 84.8503C97.8609 84.8503 98.0498 84.8503 98.2387 84.8503H98.4276C98.6165 84.8503 98.6165 84.8503 98.8055 84.8503C99.75 84.8503 99.75 84.6613 99.939 83.5275C100.128 80.5039 100.317 77.6692 100.506 74.6456C100.506 73.8897 100.884 73.7007 101.45 73.7007H101.639C104.473 73.8897 107.118 74.0787 109.952 74.0787C110.707 74.0787 111.085 74.4566 111.085 75.2125C111.274 77.8582 111.463 80.5039 111.652 83.1495C111.841 84.6613 111.841 84.8503 112.974 84.8503C113.163 84.8503 113.352 84.8503 113.541 84.8503C113.73 84.8503 113.919 84.8503 114.108 84.8503C114.297 81.8267 114.486 78.8031 114.863 75.9684C115.052 75.9684 115.241 75.9684 115.43 75.9684C116.186 78.9921 116.941 82.0157 117.508 85.0393C118.453 85.0393 119.208 85.0393 120.153 85.0393C120.153 84.8503 120.153 84.8503 120.153 84.6613C120.153 78.4251 119.964 72.3779 119.964 66.1417C119.964 65.3858 119.964 64.8188 120.531 64.2519C121.853 62.7401 122.987 61.0393 124.12 59.3385C124.12 58.9606 124.12 58.5826 124.12 58.3936C123.742 57.4488 123.176 57.0708 122.609 57.0708Z" fill="white"/>
<path d="M91.6264 55.9369C91.8153 56.5039 92.1931 57.0708 92.571 57.6377C93.1377 58.2047 93.5155 58.7716 94.0823 59.3385C94.2712 59.5275 94.4601 59.9054 94.649 60.0944C93.8934 60.6613 93.3266 61.2283 92.571 61.7952C92.382 61.9842 92.382 61.9842 92.1931 62.1732C91.6264 61.4173 90.6818 61.0393 89.1705 61.0393C88.9815 61.0393 88.7926 61.0393 88.6037 61.0393H88.2259H88.037C86.9034 61.0393 85.9589 60.8503 85.0143 60.6613C86.1478 60.2834 87.0924 59.3385 87.4702 58.2047C87.848 57.0708 88.4148 56.8818 89.1705 56.8818C90.115 56.6928 90.8707 56.5039 91.6264 55.9369ZM92.7599 49.1338C92.571 49.1338 92.382 49.3228 92.0042 49.8897C91.4375 51.0236 90.8707 52.1574 90.4929 53.2913C90.304 53.8582 89.9261 54.0472 89.3594 54.0472C87.2813 54.0472 85.9589 55.181 85.2032 57.0708C85.0143 57.6377 84.6364 57.8267 84.0697 58.0157C82.5584 58.3936 81.047 58.5826 79.7246 58.9606C79.7246 59.1495 79.7246 59.1495 79.7246 59.3385C79.7246 59.3385 79.7246 59.3385 79.9135 59.3385C81.9916 62.5511 85.0143 63.496 88.4148 63.496H88.6037C88.9815 63.496 89.1705 63.496 89.3594 63.496C90.4929 63.496 90.304 63.685 90.8707 65.1968C91.0596 65.7637 91.2485 65.9527 91.4375 65.9527C91.6264 65.9527 91.8153 65.7637 92.1931 65.5747C94.0823 64.0629 95.9715 62.5511 97.8606 61.0393C98.4274 60.4724 98.6163 60.0944 98.0496 59.5275C96.9161 58.3936 95.7825 57.0708 94.838 55.748C94.4601 55.37 94.2712 54.8031 94.4601 54.2362C94.649 52.7243 94.838 51.0236 93.8934 49.7007C93.3266 49.3228 92.9488 49.1338 92.7599 49.1338Z" fill="white"/>
<path d="M105.605 73.1338V74.6456H104.094" stroke="white" stroke-width="1.4173" stroke-miterlimit="10"/>
<path d="M101.26 74.6455H80.1016" stroke="white" stroke-width="1.4173" stroke-miterlimit="10" stroke-dasharray="1.19 1.19"/>
<path d="M78.7789 74.6456H77.2676V73.1338" stroke="white" stroke-width="1.4173" stroke-miterlimit="10"/>
<path d="M77.2676 71.4881V49.1338" stroke="white" stroke-width="1.4173" stroke-miterlimit="10" stroke-dasharray="1.19 1.19"/>
<path d="M77.2676 47.8109V46.2991H78.7789" stroke="white" stroke-width="1.4173" stroke-miterlimit="10"/>
<path d="M80.6133 46.2991H102.772" stroke="white" stroke-width="1.4173" stroke-miterlimit="10" stroke-dasharray="1.19 1.19"/>
<path d="M104.094 46.2991H105.605V47.8109" stroke="white" stroke-width="1.4173" stroke-miterlimit="10"/>
<path d="M105.605 49.6455V70.8109" stroke="white" stroke-width="1.4173" stroke-miterlimit="10" stroke-dasharray="1.19 1.19"/>
</g>
<defs>
<clipPath id="clip0">
<rect width="150" height="120" fill="white"/>
</clipPath>
</defs>
</svg>
