<svg width="150" height="120" viewBox="0 0 150 120" fill="none" xmlns="http://www.w3.org/2000/svg">
<g clip-path="url(#clip0)">
<mask id="mask0" mask-type="alpha" maskUnits="userSpaceOnUse" x="75" y="13" width="73" height="72">
<path d="M75.1895 84.0945H147.734" stroke="white" stroke-width="1.4173" stroke-miterlimit="10"/>
<path d="M75.1895 77.6694H147.734" stroke="white" stroke-width="1.4173" stroke-miterlimit="10"/>
<path d="M75.1895 71.4331H147.734" stroke="white" stroke-width="1.4173" stroke-miterlimit="10"/>
<path d="M75.1895 65.0081H147.734" stroke="white" stroke-width="1.4173" stroke-miterlimit="10"/>
<path d="M75.1895 58.7717H147.734" stroke="white" stroke-width="1.4173" stroke-miterlimit="10"/>
<path d="M75.1895 52.3467H147.734" stroke="white" stroke-width="1.4173" stroke-miterlimit="10"/>
<path d="M75.1895 46.1104H147.734" stroke="white" stroke-width="1.4173" stroke-miterlimit="10"/>
<path d="M75.1895 39.6851H147.734" stroke="white" stroke-width="1.4173" stroke-miterlimit="10"/>
<path d="M75.1895 33.449H147.734" stroke="white" stroke-width="1.4173" stroke-miterlimit="10"/>
<path d="M75.1895 27.0237H147.734" stroke="white" stroke-width="1.4173" stroke-miterlimit="10"/>
<path d="M75.1895 20.7874H147.734" stroke="white" stroke-width="1.4173" stroke-miterlimit="10"/>
<path d="M75.1895 14.3623H147.734" stroke="white" stroke-width="1.4173" stroke-miterlimit="10"/>
</mask>
<g mask="url(#mask0)">
<rect x="14" y="8" width="123" height="83" fill="white"/>
</g>
<path d="M54.7855 29.8583H55.1634H56.108V30.0473C56.108 30.0473 56.2969 30.9922 56.2969 31.7481C56.2969 32.504 56.108 33.8268 55.7301 35.1497C55.3523 36.6615 54.4077 41.1969 54.2188 41.5749V41.9528V42.3308C54.2188 43.4646 54.0299 45.5434 53.4631 46.2993C50.8183 49.7008 49.3069 52.1575 48.9291 53.2914C48.7402 54.4252 48.9291 61.2284 49.118 62.5512L48.5513 63.3071L47.6067 63.1182L47.2289 64.252C47.0399 64.252 46.6621 64.252 46.2843 64.252C44.584 64.252 42.317 64.63 40.8057 64.8189C40.4279 64.8189 40.2389 64.819 40.05 65.0079C39.4833 65.0079 38.9165 65.1969 38.3498 65.3859C37.9719 65.5749 37.2163 65.7638 36.0828 66.1418C36.0828 66.1418 35.8938 65.9528 35.7049 65.9528C35.1382 65.5749 34.1936 65.1969 33.0601 65.1969C32.6823 65.1969 32.1155 65.1969 31.7377 65.3859C32.3044 64.441 32.6823 62.9292 31.9266 60.8504L31.7377 60.4725H32.1155C30.0374 57.0709 30.4153 50.8347 33.0601 45.9213C34.9493 42.1418 41.5614 40.63 44.0173 40.063C44.3951 39.8741 44.7729 39.8741 44.9619 39.8741C47.4178 39.1182 50.0626 35.7166 50.2515 34.2048C50.2515 33.8268 50.2515 33.4489 49.6848 30.6142L50.6294 30.4252C50.6294 30.4252 52.5185 30.0473 53.2742 29.8583C53.4631 29.8583 53.841 29.8583 54.7855 29.8583ZM58.7528 23.2441C58.7528 23.2441 58.5639 23.2441 58.375 23.2441C57.6193 23.4331 55.1634 27.0237 55.1634 27.0237C55.1634 27.0237 54.9745 27.0237 54.5966 27.0237C54.0299 27.0237 53.0853 27.0237 52.7074 27.2126C51.9518 27.4016 49.8737 27.7796 49.8737 27.7796C49.8737 27.7796 47.6067 25.5119 46.4732 25.1339C46.2843 25.1339 46.0954 25.1339 46.0954 25.1339C45.3397 25.1339 45.1508 25.8898 45.5286 27.0237C45.9064 28.3465 47.0399 31.1811 47.0399 31.1811C47.0399 31.1811 47.6067 33.4489 47.6067 33.8268C47.6067 34.2048 45.9064 36.6615 44.2062 37.2284C42.5059 37.7953 33.6268 39.3071 30.7931 44.7875C27.9593 50.2678 27.2037 57.4489 30.0374 61.9843C30.0374 61.9843 30.7931 64.063 29.8485 64.441C28.9039 64.8189 24.3699 71.4331 31.7377 73.1339C33.6268 73.5119 35.516 73.7008 37.2163 73.7008C41.9392 73.7008 46.0954 72.756 48.3624 72.756C48.7402 72.756 49.118 72.756 49.3069 72.9449C51.1961 73.5119 52.3296 74.0788 53.0853 74.0788C53.2742 74.0788 53.4631 74.0788 53.652 73.8898C54.2188 73.1339 52.8964 70.8662 49.118 70.6772C48.9291 70.6772 48.5513 70.6772 48.1734 70.6772C44.584 70.6772 39.8611 71.4331 37.0273 71.4331C36.8384 71.4331 36.6495 71.4331 36.4606 71.4331C33.6268 71.2441 31.1709 69.1654 32.8712 68.5985C33.0601 68.5985 33.249 68.4095 33.4379 68.4095C34.3825 68.4095 35.1382 69.3544 36.4606 69.3544C36.6495 69.3544 37.0273 69.3544 37.4052 69.1654C39.6722 68.5985 40.4279 68.0315 40.6168 68.0315C40.9946 68.0315 44.584 67.2756 46.6621 67.2756C47.0399 67.2756 47.4178 67.2756 47.6067 67.2756C47.9845 67.2756 48.3624 67.4646 48.5513 67.4646C49.4959 67.4646 49.6848 67.0867 49.6848 66.7087C49.6848 66.7087 49.6848 66.7087 49.8737 66.7087C50.0626 66.7087 50.4404 66.7087 50.2515 66.1418L50.4404 65.7638C50.4404 65.7638 51.7629 66.7087 53.0853 66.7087H53.2742C53.652 66.7087 53.841 66.3308 53.841 66.1418C53.841 65.9528 54.4077 65.9528 54.4077 65.5749C54.7855 65.3859 54.5966 64.8189 54.5966 64.8189C54.5966 64.8189 54.5966 64.252 54.2188 64.063C53.841 63.8741 52.5185 63.6851 52.3296 63.4961C51.9518 63.1182 51.7629 62.5512 51.7629 62.1733C51.7629 61.7953 51.385 55.1812 51.5739 54.2363C51.7629 53.2914 54.0299 50.2678 55.5412 48.189C57.0525 46.1103 56.8636 42.3308 56.8636 42.3308C56.8636 42.3308 57.8082 37.6063 58.186 36.0945C58.5639 34.5827 58.9417 32.8819 58.9417 31.7481C58.9417 30.6142 58.5639 29.4804 58.5639 29.4804C58.7528 28.9134 59.1306 25.7008 59.1306 24.756C59.5085 24 59.3195 23.2441 58.7528 23.2441Z" fill="white"/>
<path d="M95.5929 71.622C94.6483 71.622 93.7037 71.433 92.948 71.244C91.0589 70.8661 90.1143 70.1102 89.9254 69.1653C89.5475 67.6535 91.0589 65.3858 91.4367 65.1968C92.5702 64.8188 92.948 63.118 92.1924 61.0393V60.8503V60.6613C89.9254 56.8818 90.3032 50.2676 93.137 44.7873C95.404 40.4409 102.205 38.7401 104.85 38.1732C105.228 37.9842 105.605 37.9842 105.794 37.9842C108.061 37.4173 109.951 34.3936 110.139 33.4487C110.139 33.2598 110.139 32.8818 109.573 30.2362C109.573 30.0472 108.628 27.5905 108.25 26.2676C108.817 26.6456 109.762 27.4015 110.517 28.1574L111.084 28.7243L111.84 28.5354C111.84 28.5354 113.729 28.1574 114.485 27.9684C114.862 27.9684 115.429 27.9684 116.185 27.9684H117.318L117.696 27.4015C118.263 26.6456 118.83 25.7007 119.396 25.1338C119.207 26.4566 119.019 28.3464 118.83 28.7243V29.1023V29.4802C118.83 29.4802 119.019 30.4251 119.019 31.559C119.019 32.5039 118.83 33.8267 118.452 35.5275C118.074 37.0393 117.129 41.7637 117.129 41.9527V42.1417V42.3306C117.129 43.2755 117.129 45.9212 116.185 47.244C115.051 48.7558 112.218 52.3464 112.029 53.6692C111.84 54.8031 112.029 61.7952 112.218 62.3621C112.406 62.9291 112.595 63.685 113.162 64.2519C113.54 64.6298 113.918 64.8188 114.485 64.8188L114.296 65.0078C113.729 64.8188 112.973 64.4409 112.784 64.4409L111.651 63.685L110.706 65.0078L110.139 64.8188L109.573 65.5747C109.384 65.5747 109.195 65.5747 108.817 65.5747C108.439 65.5747 108.061 65.3858 107.684 65.3858C106.172 65.3858 103.905 65.7637 102.583 65.9527C102.205 65.9527 101.827 66.1417 101.638 66.1417C101.26 66.1417 100.883 66.3306 100.505 66.5196C99.938 66.7086 99.1823 67.0865 98.0488 67.4645C97.8599 67.4645 97.671 67.4645 97.482 67.4645C97.1042 67.4645 96.9153 67.2755 96.5375 67.0865C95.9707 66.7086 95.404 66.5196 94.6483 66.5196C94.2705 66.5196 93.8926 66.5196 93.5148 66.7086C92.5702 67.0865 92.0035 67.8424 92.1924 68.9763C92.1924 69.9212 93.8926 71.055 95.5929 71.622Z" fill="white"/>
<path d="M115.807 29.2912H116.185H117.129V29.4802C117.129 29.4802 117.318 30.425 117.318 31.1809C117.318 31.9368 117.129 33.2597 116.752 34.5825C116.374 36.0943 115.429 40.6298 115.24 41.0077V41.3857V41.7636C115.24 42.8975 115.051 44.9762 114.485 45.7321C111.84 49.1337 110.328 51.5904 109.951 52.7242C109.762 53.8581 109.951 60.6613 110.14 61.9841L109.573 62.74L108.628 62.551L108.25 63.6849C108.061 63.6849 107.684 63.6849 107.306 63.6849C105.606 63.6849 103.339 64.0628 101.827 64.2518C101.449 64.2518 101.26 64.2518 101.072 64.4408C100.505 64.4408 99.938 64.6298 99.3713 64.8187C98.9934 65.0077 98.2378 65.1967 97.1043 65.5746C97.1043 65.5746 96.9153 65.3857 96.7264 65.3857C96.1597 65.0077 95.2151 64.6298 94.0816 64.6298C93.7037 64.6298 93.137 64.6298 92.7592 64.8187C93.3259 63.8739 93.7037 62.362 92.9481 60.2833L92.7592 59.9054L92.5702 59.7164C90.4922 56.3148 90.87 50.0786 93.5148 45.1652C95.404 41.3857 102.016 39.8739 104.472 39.3069C104.85 39.1179 105.228 39.118 105.417 39.118C107.873 38.362 110.517 34.9605 110.706 33.4487C110.706 33.0707 110.706 32.6928 110.14 29.8581L111.084 29.6691C111.084 29.6691 112.973 29.2912 113.729 29.1022C114.296 29.2912 114.862 29.2912 115.807 29.2912ZM119.774 22.677C119.774 22.677 119.585 22.677 119.396 22.677C118.641 22.866 116.185 26.4565 116.185 26.4565C116.185 26.4565 115.996 26.4565 115.618 26.4565C115.051 26.4565 114.107 26.4565 113.729 26.6455C112.973 26.8345 110.895 27.2124 110.895 27.2124C110.895 27.2124 108.628 24.9447 107.495 24.5668C107.306 24.5668 107.117 24.5668 107.117 24.5668C106.361 24.5668 106.172 25.3227 106.55 26.4565C106.928 27.7794 108.061 30.614 108.061 30.614C108.061 30.614 108.628 32.8817 108.628 33.2597C108.628 33.6376 106.928 36.0943 105.228 36.6613C103.527 37.2282 94.6483 38.74 91.8146 44.2203C88.9808 49.7006 88.2252 56.8817 91.0589 61.4172C91.0589 61.4172 91.8146 63.4959 90.87 63.8739C89.9254 64.2518 85.3914 70.866 92.7592 72.5668C94.6483 72.9447 96.5375 73.1337 98.2378 73.1337C102.961 73.1337 107.117 72.1888 109.384 72.1888C109.762 72.1888 110.14 72.1888 110.328 72.3778C112.218 72.9447 113.351 73.5117 114.107 73.5117C114.296 73.5117 114.485 73.5117 114.674 73.3227C115.24 72.5668 113.918 70.299 110.14 70.1101C109.951 70.1101 109.573 70.1101 109.195 70.1101C105.606 70.1101 100.883 70.866 98.0488 70.866C97.8599 70.866 97.671 70.866 97.4821 70.866C94.6483 70.677 92.1924 68.5983 93.8927 68.0313C94.0816 68.0313 94.2705 67.8424 94.4594 67.8424C95.404 67.8424 96.1597 68.7872 97.4821 68.7872C97.671 68.7872 98.0488 68.7872 98.4267 68.5983C100.694 68.0313 101.449 67.4644 101.638 67.4644C102.016 67.4644 105.606 66.7085 107.684 66.7085C108.061 66.7085 108.439 66.7085 108.628 66.7085C109.006 66.7085 109.384 66.8975 109.573 66.8975C110.517 66.8975 110.706 66.5195 110.706 66.1416C110.706 66.1416 110.706 66.1416 110.895 66.1416C111.084 66.1416 111.462 66.1416 111.273 65.5746L111.462 65.1967C111.462 65.1967 112.784 66.1416 114.107 66.1416H114.296C114.674 66.1416 114.862 65.7636 114.862 65.5746C114.862 65.3857 115.429 65.3857 115.429 65.0077C115.807 64.8187 115.618 64.2518 115.618 64.2518C115.618 64.2518 115.618 63.6849 115.24 63.4959C114.862 63.3069 113.54 63.118 113.351 62.929C112.973 62.551 112.784 61.9841 112.784 61.6061C112.784 61.2282 112.407 54.614 112.595 53.6691C112.784 52.7242 115.051 49.7006 116.563 47.6219C118.074 45.5431 117.885 41.7636 117.885 41.7636C117.885 41.7636 118.83 37.0392 119.208 35.5274C119.585 34.0156 119.963 32.3148 119.963 31.1809C119.963 30.0471 119.585 28.9132 119.585 28.9132C119.774 28.3463 120.152 25.1337 120.152 24.1888C120.53 23.4329 120.341 22.677 119.774 22.677Z" fill="white"/>
<path d="M125.25 114.142L130.729 117.354H19.4569L24.9355 114.142H125.25ZM125.439 111.496H24.7466C24.5576 111.496 24.1798 111.496 23.9909 111.685L14.734 116.976C13.2226 117.732 13.9783 120 15.4896 120H134.885C136.585 120 137.152 117.921 135.641 116.976L126.384 111.685C126.006 111.496 125.817 111.496 125.439 111.496Z" fill="white"/>
<path d="M132.809 9.25968C134.32 9.25968 135.453 10.3935 135.453 11.9054V86.1731C135.453 87.6849 134.32 88.8187 132.809 88.8187H17.0026C15.4912 88.8187 14.3577 87.6849 14.3577 86.1731V11.9054C14.3577 10.3935 15.4912 9.25968 17.0026 9.25968H132.809ZM132.809 6.61401H17.0026C13.9799 6.61401 11.7129 9.07071 11.7129 11.9054V86.1731C11.7129 89.1967 14.1688 91.4644 17.0026 91.4644H132.809C135.831 91.4644 138.098 89.0077 138.098 86.1731V11.9054C138.098 9.07071 135.831 6.61401 132.809 6.61401Z" fill="white"/>
<path d="M27.2051 104.882H123.553" stroke="white" stroke-width="3" stroke-miterlimit="10" stroke-linecap="round"/>
<path d="M144.521 2.83463C146.033 2.83463 147.166 3.96849 147.166 5.4803V92.7874C147.166 94.2992 146.033 95.4331 144.521 95.4331H5.28967C3.77834 95.4331 2.64484 94.2992 2.64484 92.7874V5.4803C2.64484 3.96849 3.77834 2.83463 5.28967 2.83463H144.521ZM144.521 0.188965H5.28967C2.45592 0.188965 0 2.45668 0 5.4803V92.7874C0 95.811 2.45592 98.2677 5.28967 98.2677H144.521C147.544 98.2677 149.811 95.811 149.811 92.9764V5.4803C150 2.45668 147.544 0.188965 144.521 0.188965Z" fill="white"/>
</g>
<defs>
<clipPath id="clip0">
<rect width="150" height="120" fill="white"/>
</clipPath>
</defs>
</svg>
